<?xml version="1.0" encoding="UTF-8" standalone="no"?>
<!-- Created with Inkscape (http://www.inkscape.org/) -->

<svg
   width="245.41676mm"
   height="233.42294mm"
   viewBox="0 0 245.41676 233.42294"
   version="1.1"
   id="svg1"
   inkscape:version="1.4.4 (1:1.4.4+202605061432+dcaf3e7d9e)"
   sodipodi:docname="blocks_logo_new.svg"
   xmlns:inkscape="http://www.inkscape.org/namespaces/inkscape"
   xmlns:sodipodi="http://sodipodi.sourceforge.net/DTD/sodipodi-0.dtd"
   xmlns="http://www.w3.org/2000/svg"
   xmlns:svg="http://www.w3.org/2000/svg">
  <sodipodi:namedview
     id="namedview1"
     pagecolor="#ffffff"
     bordercolor="#666666"
     borderopacity="1.0"
     inkscape:showpageshadow="2"
     inkscape:pageopacity="0.0"
     inkscape:pagecheckerboard="0"
     inkscape:deskcolor="#d1d1d1"
     inkscape:document-units="mm"
     inkscape:zoom="0.47874542"
     inkscape:cx="714.36715"
     inkscape:cy="574.41803"
     inkscape:window-width="1920"
     inkscape:window-height="1018"
     inkscape:window-x="0"
     inkscape:window-y="25"
     inkscape:window-maximized="1"
     inkscape:current-layer="layer1" />
  <defs
     id="defs1">
    <inkscape:path-effect
       effect="powerstroke"
       message=""
       id="path-effect101"
       is_visible="true"
       lpeversion="1.3"
       scale_width="1.7"
       interpolator_type="CubicBezierJohan"
       interpolator_beta="0"
       start_linecap_type="zerowidth"
       end_linecap_type="zerowidth"
       offset_points="0.2,1.299215 | 1,1.299215 | 1.8,1.299215"
       linejoin_type="round"
       miter_limit="4"
       not_jump="false"
       sort_points="true" />
    <inkscape:path-effect
       effect="powerstroke"
       message=""
       id="path-effect103"
       is_visible="true"
       lpeversion="1.3"
       scale_width="2.2"
       interpolator_type="CubicBezierJohan"
       interpolator_beta="0"
       start_linecap_type="zerowidth"
       end_linecap_type="zerowidth"
       offset_points="0.2,1.299215 | 1,1.299215 | 1.8,1.299215"
       linejoin_type="bevel"
       miter_limit="4"
       not_jump="false"
       sort_points="true" />
    <inkscape:path-effect
       effect="powerstroke"
       message=""
       id="path-effect105"
       is_visible="true"
       lpeversion="1.3"
       scale_width="1.7"
       interpolator_type="CubicBezierJohan"
       interpolator_beta="0"
       start_linecap_type="zerowidth"
       end_linecap_type="zerowidth"
       offset_points="0.2,1.299215 | 1,1.299215 | 1.8,1.299215"
       linejoin_type="round"
       miter_limit="4"
       not_jump="false"
       sort_points="true" />
    <inkscape:path-effect
       effect="powerstroke"
       message=""
       id="path-effect107"
       is_visible="true"
       lpeversion="1.3"
       scale_width="1.7"
       interpolator_type="CubicBezierJohan"
       interpolator_beta="0"
       start_linecap_type="zerowidth"
       end_linecap_type="zerowidth"
       offset_points="0.2,1.299215 | 1,1.299215 | 1.8,1.299215"
       linejoin_type="round"
       miter_limit="4"
       not_jump="false"
       sort_points="true" />
    <inkscape:path-effect
       effect="powerstroke"
       message=""
       id="path-effect109"
       is_visible="true"
       lpeversion="1.3"
       scale_width="1.7"
       interpolator_type="CubicBezierJohan"
       interpolator_beta="0"
       start_linecap_type="zerowidth"
       end_linecap_type="zerowidth"
       offset_points="0.2,1.299215 | 1,1.299215 | 1.8,1.299215"
       linejoin_type="round"
       miter_limit="4"
       not_jump="false"
       sort_points="true" />
    <inkscape:path-effect
       effect="powerstroke"
       message=""
       id="path-effect111"
       is_visible="true"
       lpeversion="1.3"
       scale_width="1.7"
       interpolator_type="CubicBezierJohan"
       interpolator_beta="0"
       start_linecap_type="zerowidth"
       end_linecap_type="zerowidth"
       offset_points="0.2,1.299215 | 1,1.299215 | 1.8,1.299215"
       linejoin_type="round"
       miter_limit="4"
       not_jump="false"
       sort_points="true" />
    <inkscape:path-effect
       effect="powerstroke"
       message=""
       id="path-effect113"
       is_visible="true"
       lpeversion="1.3"
       scale_width="2.2"
       interpolator_type="CubicBezierJohan"
       interpolator_beta="0"
       start_linecap_type="zerowidth"
       end_linecap_type="zerowidth"
       offset_points="0.2,1.299215 | 1,1.299215 | 1.8,1.299215"
       linejoin_type="bevel"
       miter_limit="4"
       not_jump="false"
       sort_points="true" />
    <inkscape:path-effect
       effect="powerstroke"
       message=""
       id="path-effect115"
       is_visible="true"
       lpeversion="1.3"
       scale_width="1.7"
       interpolator_type="CubicBezierJohan"
       interpolator_beta="0"
       start_linecap_type="zerowidth"
       end_linecap_type="zerowidth"
       offset_points="0.2,1.299215 | 1,1.299215 | 1.8,1.299215"
       linejoin_type="round"
       miter_limit="4"
       not_jump="false"
       sort_points="true" />
    <inkscape:path-effect
       effect="powerstroke"
       message=""
       id="path-effect117"
       is_visible="true"
       lpeversion="1.3"
       scale_width="1.7"
       interpolator_type="CubicBezierJohan"
       interpolator_beta="0"
       start_linecap_type="zerowidth"
       end_linecap_type="zerowidth"
       offset_points="0.2,1.299215 | 1,1.299215 | 1.8,1.299215"
       linejoin_type="round"
       miter_limit="4"
       not_jump="false"
       sort_points="true" />
    <inkscape:path-effect
       effect="powerstroke"
       message=""
       id="path-effect119"
       is_visible="true"
       lpeversion="1.3"
       scale_width="1.7"
       interpolator_type="CubicBezierJohan"
       interpolator_beta="0"
       start_linecap_type="zerowidth"
       end_linecap_type="zerowidth"
       offset_points="0.2,1.299215 | 1,1.299215 | 1.8,1.299215"
       linejoin_type="round"
       miter_limit="4"
       not_jump="false"
       sort_points="true" />
    <inkscape:path-effect
       effect="powerstroke"
       message=""
       id="path-effect121"
       is_visible="true"
       lpeversion="1.3"
       scale_width="1.7"
       interpolator_type="CubicBezierJohan"
       interpolator_beta="0"
       start_linecap_type="zerowidth"
       end_linecap_type="zerowidth"
       offset_points="0.2,1.299215 | 1,1.299215 | 1.8,1.299215"
       linejoin_type="round"
       miter_limit="4"
       not_jump="false"
       sort_points="true" />
    <inkscape:path-effect
       effect="powerstroke"
       message=""
       id="path-effect123"
       is_visible="true"
       lpeversion="1.3"
       scale_width="2.2"
       interpolator_type="CubicBezierJohan"
       interpolator_beta="0"
       start_linecap_type="zerowidth"
       end_linecap_type="zerowidth"
       offset_points="0.2,1.299215 | 1,1.299215 | 1.8,1.299215"
       linejoin_type="bevel"
       miter_limit="4"
       not_jump="false"
       sort_points="true" />
    <inkscape:path-effect
       effect="powerstroke"
       message=""
       id="path-effect125"
       is_visible="true"
       lpeversion="1.3"
       scale_width="1.7"
       interpolator_type="CubicBezierJohan"
       interpolator_beta="0"
       start_linecap_type="zerowidth"
       end_linecap_type="zerowidth"
       offset_points="0.2,1.299215 | 1,1.299215 | 1.8,1.299215"
       linejoin_type="round"
       miter_limit="4"
       not_jump="false"
       sort_points="true" />
    <inkscape:path-effect
       effect="powerstroke"
       message=""
       id="path-effect127"
       is_visible="true"
       lpeversion="1.3"
       scale_width="1.7"
       interpolator_type="CubicBezierJohan"
       interpolator_beta="0"
       start_linecap_type="zerowidth"
       end_linecap_type="zerowidth"
       offset_points="0.2,1.299215 | 1,1.299215 | 1.8,1.299215"
       linejoin_type="round"
       miter_limit="4"
       not_jump="false"
       sort_points="true" />
    <inkscape:path-effect
       effect="powerstroke"
       message=""
       id="path-effect129"
       is_visible="true"
       lpeversion="1.3"
       scale_width="1.7"
       interpolator_type="CubicBezierJohan"
       interpolator_beta="0"
       start_linecap_type="zerowidth"
       end_linecap_type="zerowidth"
       offset_points="0.2,1.299215 | 1,1.299215 | 1.8,1.299215"
       linejoin_type="round"
       miter_limit="4"
       not_jump="false"
       sort_points="true" />
    <inkscape:path-effect
       effect="powerstroke"
       message=""
       id="path-effect131"
       is_visible="true"
       lpeversion="1.3"
       scale_width="1.7"
       interpolator_type="CubicBezierJohan"
       interpolator_beta="0"
       start_linecap_type="zerowidth"
       end_linecap_type="zerowidth"
       offset_points="0.2,1.299215 | 1,1.299215 | 1.8,1.299215"
       linejoin_type="round"
       miter_limit="4"
       not_jump="false"
       sort_points="true" />
    <inkscape:path-effect
       effect="powerstroke"
       message=""
       id="path-effect133"
       is_visible="true"
       lpeversion="1.3"
       scale_width="2.2"
       interpolator_type="CubicBezierJohan"
       interpolator_beta="0"
       start_linecap_type="zerowidth"
       end_linecap_type="zerowidth"
       offset_points="0.2,1.299215 | 1,1.299215 | 1.8,1.299215"
       linejoin_type="bevel"
       miter_limit="4"
       not_jump="false"
       sort_points="true" />
    <inkscape:path-effect
       effect="powerstroke"
       message=""
       id="path-effect135"
       is_visible="true"
       lpeversion="1.3"
       scale_width="1.7"
       interpolator_type="CubicBezierJohan"
       interpolator_beta="0"
       start_linecap_type="zerowidth"
       end_linecap_type="zerowidth"
       offset_points="0.2,1.299215 | 1,1.299215 | 1.8,1.299215"
       linejoin_type="round"
       miter_limit="4"
       not_jump="false"
       sort_points="true" />
    <inkscape:path-effect
       effect="powerstroke"
       message=""
       id="path-effect137"
       is_visible="true"
       lpeversion="1.3"
       scale_width="1.7"
       interpolator_type="CubicBezierJohan"
       interpolator_beta="0"
       start_linecap_type="zerowidth"
       end_linecap_type="zerowidth"
       offset_points="0.2,1.299215 | 1,1.299215 | 1.8,1.299215"
       linejoin_type="round"
       miter_limit="4"
       not_jump="false"
       sort_points="true" />
    <inkscape:path-effect
       effect="powerstroke"
       message=""
       id="path-effect139"
       is_visible="true"
       lpeversion="1.3"
       scale_width="1.7"
       interpolator_type="CubicBezierJohan"
       interpolator_beta="0"
       start_linecap_type="zerowidth"
       end_linecap_type="zerowidth"
       offset_points="0.2,1.299215 | 1,1.299215 | 1.8,1.299215"
       linejoin_type="round"
       miter_limit="4"
       not_jump="false"
       sort_points="true" />
  </defs>
  <g
     inkscape:label="Layer 1"
     inkscape:groupmode="layer"
     id="layer1"
     transform="translate(14.907192,32.171317)">
    <g
       id="g80"
       transform="matrix(0.27107655,0,0,0.27107655,-2123.7589,-1216.2948)"
       style="clip-rule:evenodd;fill-rule:evenodd;stroke-width:2.25026;image-rendering:optimizeQuality;shape-rendering:geometricPrecision;text-rendering:geometricPrecision">
      <path
         inkscape:label="Face:0"
         style="clip-rule:evenodd;fill:#27003d;fill-opacity:1;fill-rule:evenodd;stroke:none;stroke-width:5.85628;stroke-linejoin:round;stroke-dasharray:none;stroke-opacity:1;image-rendering:optimizeQuality;shape-rendering:geometricPrecision;text-rendering:geometricPrecision"
         d="m 8489.2512,4449.8652 -447.998,98.337 v 386.9745 l 447.998,-97.2951 z"
         id="path52"
         sodipodi:nodetypes="ccccc" />
      <path
         inkscape:label="Face:2"
         style="clip-rule:evenodd;fill:#360045;fill-opacity:1;fill-rule:evenodd;stroke:none;stroke-width:5.85628;stroke-linejoin:round;stroke-dasharray:none;stroke-opacity:1;image-rendering:optimizeQuality;shape-rendering:geometricPrecision;text-rendering:geometricPrecision"
         d="m 8489.2512,4449.8651 -257.517,-79.4311 -449.982,97.726 257.516,79.4299 z"
         id="path53"
         sodipodi:nodetypes="ccccc" />
      <path
         inkscape:label="Face:3"
         style="clip-rule:evenodd;fill:#1f003d;fill-opacity:1;fill-rule:evenodd;stroke:none;stroke-width:5.85628;stroke-linejoin:round;stroke-dasharray:none;stroke-opacity:1;image-rendering:optimizeQuality;shape-rendering:geometricPrecision;text-rendering:geometricPrecision"
         d="m 8039.2682,4547.5899 -257.516,-79.4299 v 386.9735 l 257.516,79.4308 z"
         id="path54" />
      <g
         id="g59"
         transform="translate(6513.0536,228.15392)"
         style="fill:#ffffff;stroke-width:2.25026">
        <path
           style="clip-rule:evenodd;fill:#ffffff;fill-opacity:1;fill-rule:nonzero;stroke:none;stroke-width:5.85628;stroke-linejoin:round;stroke-dasharray:none;stroke-opacity:1;image-rendering:optimizeQuality;shape-rendering:geometricPrecision;text-rendering:geometricPrecision"
           d="m 2692.9636,4747.7814 c 0,0 90.0683,-17.3007 90.0683,-17.3007 0,0 358.291,-77.813 358.3982,-77.8362 a 2.2086913,2.2086961 83.873433 0 0 1.74,-2.1584 c 0,-0.093 0,-310.413 0,-310.413 0,0 -2.2087,-77.6032 -2.2087,-77.6032 0,0 -2.2087,77.6032 -2.2087,77.6032 0,0 0,283.4677 0,308.6325 -26.8988,5.8419 -356.6583,77.4584 -356.6583,77.4584 0,0 -89.1308,21.6174 -89.1308,21.6174 z"
           id="path55"
           inkscape:path-effect="#path-effect101"
           inkscape:original-d="m 2692.9636,4747.7814 447.9978,-97.2953 v -388.0162"
           transform="translate(-1164.7639,-40.758412)"
           sodipodi:nodetypes="ccc" />
        <path
           style="clip-rule:evenodd;fill:#ffffff;fill-opacity:1;fill-rule:nonzero;stroke:none;stroke-width:5.85628;stroke-linejoin:round;stroke-dasharray:none;stroke-opacity:1;image-rendering:optimizeQuality;shape-rendering:geometricPrecision;text-rendering:geometricPrecision"
           d="m 3140.9614,4262.4699 c 0,0 -90.2124,16.8756 -90.2124,16.8756 0,0 -358.2911,78.6461 -358.3984,78.6697 l -2.2455,2.7918 c 0,0.093 0,310.413 0,310.413 0,0 2.8583,77.6032 2.8583,77.6032 0,0 2.8583,-77.6032 2.8583,-77.6032 0,0 0,-279.8266 0,-308.1141 30.2582,-6.6418 356.1529,-78.1768 356.1529,-78.1768 z"
           id="path56"
           inkscape:path-effect="#path-effect103"
           inkscape:original-d="m 3140.9614,4262.4699 -447.998,98.3371 v 388.0162"
           transform="translate(-1164.7639,-40.758412)" />
        <path
           style="clip-rule:evenodd;fill:#ffffff;fill-opacity:1;fill-rule:nonzero;stroke:none;stroke-width:5.85628;stroke-linejoin:round;stroke-dasharray:none;stroke-opacity:1;image-rendering:optimizeQuality;shape-rendering:geometricPrecision;text-rendering:geometricPrecision"
           d="m 3140.9616,4262.4698 c 0,0 -50.8524,-17.9968 -50.8524,-17.9968 0,0 -205.952,-63.5258 -206.0137,-63.5448 a 2.2087004,2.2087802 47.445544 0 0 -1.1198,-0.048 c -0.1077,0.023 -359.9855,78.1807 -359.9855,78.1807 0,0 -89.5276,21.7036 -89.5276,21.7036 0,0 90.4651,-17.3868 90.4651,-17.3868 0,0 343.5645,-74.6146 359.4194,-78.0579 11.7158,3.6137 205.4601,63.3741 205.4601,63.3741 0,0 52.1544,13.7757 52.1544,13.7757 z"
           id="path57"
           inkscape:path-effect="#path-effect105"
           inkscape:original-d="m 3140.9616,4262.4698 -257.5171,-79.4311 -449.9819,97.726"
           transform="translate(-1164.7639,-40.758412)" />
        <path
           style="clip-rule:evenodd;fill:#ffffff;fill-opacity:1;fill-rule:nonzero;stroke:none;stroke-width:5.85628;stroke-linejoin:round;stroke-dasharray:none;stroke-opacity:1;image-rendering:optimizeQuality;shape-rendering:geometricPrecision;text-rendering:geometricPrecision"
           d="m 2433.4626,4280.7647 c 0,0 50.8522,17.9965 50.8522,17.9965 0,0 205.9514,63.5249 206.013,63.5439 a 2.2087004,2.2087802 47.445535 0 0 1.1198,0.048 c 0.1077,-0.023 359.9862,-78.1798 359.9862,-78.1798 0,0 89.5278,-21.7033 89.5278,-21.7033 0,0 -90.4653,17.3866 -90.4653,17.3866 0,0 -343.5653,74.6136 -359.4201,78.0569 -11.7157,-3.6137 -205.4594,-63.3732 -205.4594,-63.3732 z"
           id="path58"
           inkscape:path-effect="#path-effect107"
           inkscape:original-d="m 2433.4626,4280.7647 257.5162,79.4299 449.9828,-97.7248"
           transform="translate(-1164.7639,-40.758412)" />
        <path
           style="clip-rule:evenodd;fill:#ffffff;fill-opacity:1;fill-rule:nonzero;stroke:none;stroke-width:5.85628;stroke-linejoin:round;stroke-dasharray:none;stroke-opacity:1;image-rendering:optimizeQuality;shape-rendering:geometricPrecision;text-rendering:geometricPrecision"
           d="m 2433.4626,4280.7647 c 0,0 -2.2087,77.3947 -2.2087,77.3947 0,0 0,309.4861 0,309.5788 a 2.2086849,2.2086939 8.5711477 0 0 1.5577,2.1106 c 0.062,0.019 206.013,63.5446 206.013,63.5446 0,0 52.1542,13.7756 52.1542,13.7756 0,0 -50.8522,-17.9967 -50.8522,-17.9967 0,0 -185.5041,-57.2187 -204.4553,-63.0642 0,-24.1256 0,-307.9487 0,-307.9487 0,0 -2.2087,-77.3947 -2.2087,-77.3947 z"
           id="path59"
           inkscape:path-effect="#path-effect109"
           inkscape:original-d="m 2433.4626,4280.7647 v 386.9735 l 257.5162,79.4308"
           transform="translate(-1164.7639,-40.758412)" />
      </g>
      <g
         id="g60"
         inkscape:label="Galaxy"
         style="clip-rule:evenodd;opacity:1;mix-blend-mode:normal;fill:#ffffff;fill-opacity:1;fill-rule:evenodd;stroke:none;stroke-width:2.25026;image-rendering:optimizeQuality;shape-rendering:geometricPrecision;text-rendering:geometricPrecision"
         transform="translate(6585.7747,1238.7856)">
        <path
           id="path60"
           style="clip-rule:evenodd;opacity:1;fill:#ffffff;fill-opacity:1;fill-rule:evenodd;stroke:none;stroke-width:5.75867;stroke-dasharray:none;image-rendering:optimizeQuality;shape-rendering:geometricPrecision;text-rendering:geometricPrecision"
           d="m 1763.0846,3314.2485 c -14.2405,-0.086 -32.692,2.8157 -56.4584,9.8771 -94.4637,28.0669 -150.1056,104.9119 -150.1056,104.9119 l 0.9514,1.6681 c 0,0 46.8373,-58.8074 122.6329,-77.5926 110.9512,-27.4979 81.8186,46.4244 50.8188,71.1567 l -0.2652,0.075 c 0.1399,-0.4181 13.8148,-41.4912 -10.8826,-46.8465 -61.06,-13.2399 -155.7719,61.9272 -178.0883,112.9651 -4.1802,9.5601 -45.8155,109.3009 92.462,68.2162 94.4637,-28.0669 150.1064,-104.9119 150.1064,-104.9119 l -0.9522,-1.6681 c 0,0 -46.8372,58.8074 -122.6329,77.5926 -110.9512,27.4979 -81.8185,-46.4244 -50.8188,-71.1567 l 0.2652,-0.075 c -0.1399,0.4181 -13.8148,41.492 10.8827,46.8473 61.0599,13.24 155.7718,-61.9272 178.0882,-112.9651 3.4617,-7.9169 32.6095,-77.68 -36.0036,-78.0941 z" />
      </g>
      <path
         inkscape:label="Face:2"
         style="clip-rule:evenodd;fill:#27003d;fill-opacity:1;fill-rule:evenodd;stroke:none;stroke-width:5.85628;stroke-linejoin:round;stroke-dasharray:none;stroke-opacity:1;image-rendering:optimizeQuality;shape-rendering:geometricPrecision;text-rendering:geometricPrecision"
         d="m 8682.0422,4745.5911 -129.602,-39.9759 -226.466,49.1832 129.602,39.9753 z"
         id="path61"
         sodipodi:nodetypes="ccccc" />
      <path
         style="clip-rule:evenodd;fill:#ffffff;fill-opacity:1;fill-rule:nonzero;stroke:none;stroke-width:11.6363;stroke-linejoin:round;stroke-dasharray:none;stroke-opacity:1;image-rendering:optimizeQuality;shape-rendering:geometricPrecision;text-rendering:geometricPrecision"
         d="m 2692.9636,4747.7814 c 0,0 90.0683,-17.3007 90.0683,-17.3007 0,0 358.291,-77.813 358.3982,-77.8362 a 2.2086913,2.2086961 83.873433 0 0 1.74,-2.1584 c 0,-0.093 0,-310.413 0,-310.413 0,0 -2.2087,-77.6032 -2.2087,-77.6032 0,0 -2.2087,77.6032 -2.2087,77.6032 0,0 0,283.4677 0,308.6325 -26.8988,5.8419 -356.6583,77.4584 -356.6583,77.4584 0,0 -89.1308,21.6174 -89.1308,21.6174 z"
         id="path62"
         inkscape:path-effect="#path-effect111"
         inkscape:original-d="m 2692.9636,4747.7814 447.9978,-97.2953 v -388.0162"
         transform="matrix(0.50327673,0,0,0.50327673,7101.2693,2600.389)"
         sodipodi:nodetypes="ccc" />
      <path
         style="clip-rule:evenodd;fill:#ffffff;fill-opacity:1;fill-rule:nonzero;stroke:none;stroke-width:11.6363;stroke-linejoin:round;stroke-dasharray:none;stroke-opacity:1;image-rendering:optimizeQuality;shape-rendering:geometricPrecision;text-rendering:geometricPrecision"
         d="m 3140.9614,4262.4699 c 0,0 -90.2124,16.8756 -90.2124,16.8756 0,0 -358.2911,78.6461 -358.3984,78.6697 l -2.2455,2.7918 c 0,0.093 0,310.413 0,310.413 0,0 2.8583,77.6032 2.8583,77.6032 0,0 2.8583,-77.6032 2.8583,-77.6032 0,0 0,-279.8266 0,-308.1141 30.2582,-6.6418 356.1529,-78.1768 356.1529,-78.1768 z"
         id="path63"
         inkscape:path-effect="#path-effect113"
         inkscape:original-d="m 3140.9614,4262.4699 -447.998,98.3371 v 388.0162"
         transform="matrix(0.50327673,0,0,0.50327673,7101.2693,2600.389)" />
      <path
         style="clip-rule:evenodd;fill:#ffffff;fill-opacity:1;fill-rule:nonzero;stroke:none;stroke-width:11.6363;stroke-linejoin:round;stroke-dasharray:none;stroke-opacity:1;image-rendering:optimizeQuality;shape-rendering:geometricPrecision;text-rendering:geometricPrecision"
         d="m 3140.9616,4262.4698 c 0,0 -50.8524,-17.9968 -50.8524,-17.9968 0,0 -205.952,-63.5258 -206.0137,-63.5448 a 2.2087004,2.2087802 47.445544 0 0 -1.1198,-0.048 c -0.1077,0.023 -359.9855,78.1807 -359.9855,78.1807 0,0 -89.5276,21.7036 -89.5276,21.7036 0,0 90.4651,-17.3868 90.4651,-17.3868 0,0 343.5645,-74.6146 359.4194,-78.0579 11.7158,3.6137 205.4601,63.3741 205.4601,63.3741 0,0 52.1544,13.7757 52.1544,13.7757 z"
         id="path64"
         inkscape:path-effect="#path-effect115"
         inkscape:original-d="m 3140.9616,4262.4698 -257.5171,-79.4311 -449.9819,97.726"
         transform="matrix(0.50327673,0,0,0.50327673,7101.2693,2600.389)" />
      <path
         style="clip-rule:evenodd;fill:#ffffff;fill-opacity:1;fill-rule:nonzero;stroke:none;stroke-width:11.6363;stroke-linejoin:round;stroke-dasharray:none;stroke-opacity:1;image-rendering:optimizeQuality;shape-rendering:geometricPrecision;text-rendering:geometricPrecision"
         d="m 2433.4626,4280.7647 c 0,0 50.8522,17.9965 50.8522,17.9965 0,0 205.9514,63.5249 206.013,63.5439 a 2.2087004,2.2087802 47.445535 0 0 1.1198,0.048 c 0.1077,-0.023 359.9862,-78.1798 359.9862,-78.1798 0,0 89.5278,-21.7033 89.5278,-21.7033 0,0 -90.4653,17.3866 -90.4653,17.3866 0,0 -343.5653,74.6136 -359.4201,78.0569 -11.7157,-3.6137 -205.4594,-63.3732 -205.4594,-63.3732 z"
         id="path65"
         inkscape:path-effect="#path-effect117"
         inkscape:original-d="m 2433.4626,4280.7647 257.5162,79.4299 449.9828,-97.7248"
         transform="matrix(0.50327673,0,0,0.50327673,7101.2693,2600.389)" />
      <path
         style="clip-rule:evenodd;fill:#ffffff;fill-opacity:1;fill-rule:nonzero;stroke:none;stroke-width:11.6363;stroke-linejoin:round;stroke-dasharray:none;stroke-opacity:1;image-rendering:optimizeQuality;shape-rendering:geometricPrecision;text-rendering:geometricPrecision"
         d="m 2433.4626,4280.7647 c 0,0 -2.2087,77.3947 -2.2087,77.3947 0,0 0,309.4861 0,309.5788 a 2.2086849,2.2086939 8.5711477 0 0 1.5577,2.1106 c 0.062,0.019 206.013,63.5446 206.013,63.5446 0,0 52.1542,13.7756 52.1542,13.7756 0,0 -50.8522,-17.9967 -50.8522,-17.9967 0,0 -185.5041,-57.2187 -204.4553,-63.0642 0,-24.1256 0,-307.9487 0,-307.9487 0,0 -2.2087,-77.3947 -2.2087,-77.3947 z"
         id="path66"
         inkscape:path-effect="#path-effect119"
         inkscape:original-d="m 2433.4626,4280.7647 v 386.9735 l 257.5162,79.4308"
         transform="matrix(0.50327673,0,0,0.50327673,7101.2693,2600.389)" />
      <g
         id="g71"
         transform="translate(6514.1576,228.15382)"
         style="fill:#ffffff;stroke-width:2.25026">
        <path
           style="clip-rule:evenodd;fill:#ffffff;fill-opacity:1;fill-rule:nonzero;stroke:none;stroke-width:5.85628;stroke-linejoin:round;stroke-dasharray:none;stroke-opacity:1;image-rendering:optimizeQuality;shape-rendering:geometricPrecision;text-rendering:geometricPrecision"
           d="m 2692.9636,4747.7814 c 0,0 90.0683,-17.3007 90.0683,-17.3007 0,0 358.291,-77.813 358.3982,-77.8362 a 2.2086913,2.2086961 83.873433 0 0 1.74,-2.1584 c 0,-0.093 0,-310.413 0,-310.413 0,0 -2.2087,-77.6032 -2.2087,-77.6032 0,0 -2.2087,77.6032 -2.2087,77.6032 0,0 0,283.4677 0,308.6325 -26.8988,5.8419 -356.6583,77.4584 -356.6583,77.4584 0,0 -89.1308,21.6174 -89.1308,21.6174 z"
           id="path67"
           inkscape:path-effect="#path-effect121"
           inkscape:original-d="m 2692.9636,4747.7814 447.9978,-97.2953 v -388.0162"
           transform="translate(-1164.7639,-40.758412)"
           sodipodi:nodetypes="ccc" />
        <path
           style="clip-rule:evenodd;fill:#ffffff;fill-opacity:1;fill-rule:nonzero;stroke:none;stroke-width:5.85628;stroke-linejoin:round;stroke-dasharray:none;stroke-opacity:1;image-rendering:optimizeQuality;shape-rendering:geometricPrecision;text-rendering:geometricPrecision"
           d="m 3140.9614,4262.4699 c 0,0 -90.2124,16.8756 -90.2124,16.8756 0,0 -358.2911,78.6461 -358.3984,78.6697 l -2.2455,2.7918 c 0,0.093 0,310.413 0,310.413 0,0 2.8583,77.6032 2.8583,77.6032 0,0 2.8583,-77.6032 2.8583,-77.6032 0,0 0,-279.8266 0,-308.1141 30.2582,-6.6418 356.1529,-78.1768 356.1529,-78.1768 z"
           id="path68"
           inkscape:path-effect="#path-effect123"
           inkscape:original-d="m 3140.9614,4262.4699 -447.998,98.3371 v 388.0162"
           transform="translate(-1164.7639,-40.758412)" />
        <path
           style="clip-rule:evenodd;fill:#ffffff;fill-opacity:1;fill-rule:nonzero;stroke:none;stroke-width:5.85628;stroke-linejoin:round;stroke-dasharray:none;stroke-opacity:1;image-rendering:optimizeQuality;shape-rendering:geometricPrecision;text-rendering:geometricPrecision"
           d="m 3140.9616,4262.4698 c 0,0 -50.8524,-17.9968 -50.8524,-17.9968 0,0 -205.952,-63.5258 -206.0137,-63.5448 a 2.2087004,2.2087802 47.445544 0 0 -1.1198,-0.048 c -0.1077,0.023 -359.9855,78.1807 -359.9855,78.1807 0,0 -89.5276,21.7036 -89.5276,21.7036 0,0 90.4651,-17.3868 90.4651,-17.3868 0,0 343.5645,-74.6146 359.4194,-78.0579 11.7158,3.6137 205.4601,63.3741 205.4601,63.3741 0,0 52.1544,13.7757 52.1544,13.7757 z"
           id="path69"
           inkscape:path-effect="#path-effect125"
           inkscape:original-d="m 3140.9616,4262.4698 -257.5171,-79.4311 -449.9819,97.726"
           transform="translate(-1164.7639,-40.758412)" />
        <path
           style="clip-rule:evenodd;fill:#ffffff;fill-opacity:1;fill-rule:nonzero;stroke:none;stroke-width:5.85628;stroke-linejoin:round;stroke-dasharray:none;stroke-opacity:1;image-rendering:optimizeQuality;shape-rendering:geometricPrecision;text-rendering:geometricPrecision"
           d="m 2433.4626,4280.7647 c 0,0 50.8522,17.9965 50.8522,17.9965 0,0 205.9514,63.5249 206.013,63.5439 a 2.2087004,2.2087802 47.445535 0 0 1.1198,0.048 c 0.1077,-0.023 359.9862,-78.1798 359.9862,-78.1798 0,0 89.5278,-21.7033 89.5278,-21.7033 0,0 -90.4653,17.3866 -90.4653,17.3866 0,0 -343.5653,74.6136 -359.4201,78.0569 -11.7157,-3.6137 -205.4594,-63.3732 -205.4594,-63.3732 z"
           id="path70"
           inkscape:path-effect="#path-effect127"
           inkscape:original-d="m 2433.4626,4280.7647 257.5162,79.4299 449.9828,-97.7248"
           transform="translate(-1164.7639,-40.758412)" />
        <path
           style="clip-rule:evenodd;fill:#ffffff;fill-opacity:1;fill-rule:nonzero;stroke:none;stroke-width:5.85628;stroke-linejoin:round;stroke-dasharray:none;stroke-opacity:1;image-rendering:optimizeQuality;shape-rendering:geometricPrecision;text-rendering:geometricPrecision"
           d="m 2433.4626,4280.7647 c 0,0 -2.2087,77.3947 -2.2087,77.3947 0,0 0,309.4861 0,309.5788 a 2.2086849,2.2086939 8.5711477 0 0 1.5577,2.1106 c 0.062,0.019 206.013,63.5446 206.013,63.5446 0,0 52.1542,13.7756 52.1542,13.7756 0,0 -50.8522,-17.9967 -50.8522,-17.9967 0,0 -185.5041,-57.2187 -204.4553,-63.0642 0,-24.1256 0,-307.9487 0,-307.9487 0,0 -2.2087,-77.3947 -2.2087,-77.3947 z"
           id="path71"
           inkscape:path-effect="#path-effect129"
           inkscape:original-d="m 2433.4626,4280.7647 v 386.9735 l 257.5162,79.4308"
           transform="translate(-1164.7639,-40.758412)" />
      </g>
      <g
         id="g74"
         transform="matrix(0.50070981,0,0,0.50070981,6033.884,1048.7399)"
         style="stroke-width:4.49414">
        <path
           inkscape:label="Face:0"
           style="clip-rule:evenodd;fill:#27003d;fill-opacity:1;fill-rule:evenodd;stroke:none;stroke-width:11.696;stroke-linejoin:round;stroke-dasharray:none;stroke-opacity:1;image-rendering:optimizeQuality;shape-rendering:geometricPrecision;text-rendering:geometricPrecision"
           d="m 5286.822,7385.7089 -447.998,98.337 v 386.9745 l 447.998,-97.2951 z"
           id="path72"
           sodipodi:nodetypes="ccccc" />
        <path
           inkscape:label="Face:2"
           style="clip-rule:evenodd;fill:#360045;fill-opacity:1;fill-rule:evenodd;stroke:none;stroke-width:11.696;stroke-linejoin:round;stroke-dasharray:none;stroke-opacity:1;image-rendering:optimizeQuality;shape-rendering:geometricPrecision;text-rendering:geometricPrecision"
           d="m 5286.822,7385.7088 -257.517,-79.4311 -449.982,97.726 257.516,79.4299 z"
           id="path73"
           sodipodi:nodetypes="ccccc" />
        <path
           inkscape:label="Face:3"
           style="clip-rule:evenodd;fill:#1f003d;fill-opacity:1;fill-rule:evenodd;stroke:none;stroke-width:11.696;stroke-linejoin:round;stroke-dasharray:none;stroke-opacity:1;image-rendering:optimizeQuality;shape-rendering:geometricPrecision;text-rendering:geometricPrecision"
           d="m 4836.839,7483.4336 -257.516,-79.4299 v 386.9735 l 257.516,79.4308 z"
           id="path74" />
      </g>
      <g
         id="g75"
         inkscape:label="Galaxy"
         style="clip-rule:evenodd;opacity:1;mix-blend-mode:normal;fill:#ffffff;fill-opacity:1;fill-rule:evenodd;stroke:none;stroke-width:2.25026;image-rendering:optimizeQuality;shape-rendering:geometricPrecision;text-rendering:geometricPrecision"
         transform="translate(6586.8787,1238.7856)">
        <path
           id="path75"
           style="clip-rule:evenodd;opacity:1;fill:#ffffff;fill-opacity:1;fill-rule:evenodd;stroke:none;stroke-width:5.75867;stroke-dasharray:none;image-rendering:optimizeQuality;shape-rendering:geometricPrecision;text-rendering:geometricPrecision"
           d="m 1763.0846,3314.2485 c -14.2405,-0.086 -32.692,2.8157 -56.4584,9.8771 -94.4637,28.0669 -150.1056,104.9119 -150.1056,104.9119 l 0.9514,1.6681 c 0,0 46.8373,-58.8074 122.6329,-77.5926 110.9512,-27.4979 81.8186,46.4244 50.8188,71.1567 l -0.2652,0.075 c 0.1399,-0.4181 13.8148,-41.4912 -10.8826,-46.8465 -61.06,-13.2399 -155.7719,61.9272 -178.0883,112.9651 -4.1802,9.5601 -45.8155,109.3009 92.462,68.2162 94.4637,-28.0669 150.1064,-104.9119 150.1064,-104.9119 l -0.9522,-1.6681 c 0,0 -46.8372,58.8074 -122.6329,77.5926 -110.9512,27.4979 -81.8185,-46.4244 -50.8188,-71.1567 l 0.2652,-0.075 c -0.1399,0.4181 -13.8148,41.492 10.8827,46.8473 61.0599,13.24 155.7718,-61.9272 178.0882,-112.9651 3.4617,-7.9169 32.6095,-77.68 -36.0036,-78.0941 z" />
      </g>
      <path
         style="clip-rule:evenodd;fill:#ffffff;fill-opacity:1;fill-rule:nonzero;stroke:none;stroke-width:11.6363;stroke-linejoin:round;stroke-dasharray:none;stroke-opacity:1;image-rendering:optimizeQuality;shape-rendering:geometricPrecision;text-rendering:geometricPrecision"
         d="m 2692.9636,4747.7814 c 0,0 90.0683,-17.3007 90.0683,-17.3007 0,0 358.291,-77.813 358.3982,-77.8362 a 2.2086913,2.2086961 83.873433 0 0 1.74,-2.1584 c 0,-0.093 0,-310.413 0,-310.413 0,0 -2.2087,-77.6032 -2.2087,-77.6032 0,0 -2.2087,77.6032 -2.2087,77.6032 0,0 0,283.4677 0,308.6325 -26.8988,5.8419 -356.6583,77.4584 -356.6583,77.4584 0,0 -89.1308,21.6174 -89.1308,21.6174 z"
         id="path76"
         inkscape:path-effect="#path-effect131"
         inkscape:original-d="m 2692.9636,4747.7814 447.9978,-97.2953 v -388.0162"
         transform="matrix(0.50327673,0,0,0.50327673,7102.3733,2600.3891)"
         sodipodi:nodetypes="ccc" />
      <path
         style="clip-rule:evenodd;fill:#ffffff;fill-opacity:1;fill-rule:nonzero;stroke:none;stroke-width:11.6363;stroke-linejoin:round;stroke-dasharray:none;stroke-opacity:1;image-rendering:optimizeQuality;shape-rendering:geometricPrecision;text-rendering:geometricPrecision"
         d="m 3140.9614,4262.4699 c 0,0 -90.2124,16.8756 -90.2124,16.8756 0,0 -358.2911,78.6461 -358.3984,78.6697 l -2.2455,2.7918 c 0,0.093 0,310.413 0,310.413 0,0 2.8583,77.6032 2.8583,77.6032 0,0 2.8583,-77.6032 2.8583,-77.6032 0,0 0,-279.8266 0,-308.1141 30.2582,-6.6418 356.1529,-78.1768 356.1529,-78.1768 z"
         id="path77"
         inkscape:path-effect="#path-effect133"
         inkscape:original-d="m 3140.9614,4262.4699 -447.998,98.3371 v 388.0162"
         transform="matrix(0.50327673,0,0,0.50327673,7102.3733,2600.3891)" />
      <path
         style="clip-rule:evenodd;fill:#ffffff;fill-opacity:1;fill-rule:nonzero;stroke:none;stroke-width:11.6363;stroke-linejoin:round;stroke-dasharray:none;stroke-opacity:1;image-rendering:optimizeQuality;shape-rendering:geometricPrecision;text-rendering:geometricPrecision"
         d="m 3140.9616,4262.4698 c 0,0 -50.8524,-17.9968 -50.8524,-17.9968 0,0 -205.952,-63.5258 -206.0137,-63.5448 a 2.2087004,2.2087802 47.445544 0 0 -1.1198,-0.048 c -0.1077,0.023 -359.9855,78.1807 -359.9855,78.1807 0,0 -89.5276,21.7036 -89.5276,21.7036 0,0 90.4651,-17.3868 90.4651,-17.3868 0,0 343.5645,-74.6146 359.4194,-78.0579 11.7158,3.6137 205.4601,63.3741 205.4601,63.3741 0,0 52.1544,13.7757 52.1544,13.7757 z"
         id="path78"
         inkscape:path-effect="#path-effect135"
         inkscape:original-d="m 3140.9616,4262.4698 -257.5171,-79.4311 -449.9819,97.726"
         transform="matrix(0.50327673,0,0,0.50327673,7102.3733,2600.3891)" />
      <path
         style="clip-rule:evenodd;fill:#ffffff;fill-opacity:1;fill-rule:nonzero;stroke:none;stroke-width:11.6363;stroke-linejoin:round;stroke-dasharray:none;stroke-opacity:1;image-rendering:optimizeQuality;shape-rendering:geometricPrecision;text-rendering:geometricPrecision"
         d="m 2433.4626,4280.7647 c 0,0 50.8522,17.9965 50.8522,17.9965 0,0 205.9514,63.5249 206.013,63.5439 a 2.2087004,2.2087802 47.445535 0 0 1.1198,0.048 c 0.1077,-0.023 359.9862,-78.1798 359.9862,-78.1798 0,0 89.5278,-21.7033 89.5278,-21.7033 0,0 -90.4653,17.3866 -90.4653,17.3866 0,0 -343.5653,74.6136 -359.4201,78.0569 -11.7157,-3.6137 -205.4594,-63.3732 -205.4594,-63.3732 z"
         id="path79"
         inkscape:path-effect="#path-effect137"
         inkscape:original-d="m 2433.4626,4280.7647 257.5162,79.4299 449.9828,-97.7248"
         transform="matrix(0.50327673,0,0,0.50327673,7102.3733,2600.3891)" />
      <path
         style="clip-rule:evenodd;fill:#ffffff;fill-opacity:1;fill-rule:nonzero;stroke:none;stroke-width:11.6363;stroke-linejoin:round;stroke-dasharray:none;stroke-opacity:1;image-rendering:optimizeQuality;shape-rendering:geometricPrecision;text-rendering:geometricPrecision"
         d="m 2433.4626,4280.7647 c 0,0 -2.2087,77.3947 -2.2087,77.3947 0,0 0,309.4861 0,309.5788 a 2.2086849,2.2086939 8.5711477 0 0 1.5577,2.1106 c 0.062,0.019 206.013,63.5446 206.013,63.5446 0,0 52.1542,13.7756 52.1542,13.7756 0,0 -50.8522,-17.9967 -50.8522,-17.9967 0,0 -185.5041,-57.2187 -204.4553,-63.0642 0,-24.1256 0,-307.9487 0,-307.9487 0,0 -2.2087,-77.3947 -2.2087,-77.3947 z"
         id="path80"
         inkscape:path-effect="#path-effect139"
         inkscape:original-d="m 2433.4626,4280.7647 v 386.9735 l 257.5162,79.4308"
         transform="matrix(0.50327673,0,0,0.50327673,7102.3733,2600.3891)" />
    </g>
    <g
       id="g100"
       transform="matrix(0.226969,0,0,0.226969,-1750.4853,-1007.9015)"
       style="clip-rule:evenodd;fill-rule:evenodd;stroke-width:2.68756;image-rendering:optimizeQuality;shape-rendering:geometricPrecision;text-rendering:geometricPrecision">
      <path
         style="font-weight:900;font-size:270.215px;line-height:1.25;font-family:Tektur;-inkscape-font-specification:'Tektur Heavy';font-variant-ligatures:none;text-align:justify;letter-spacing:0px;word-spacing:0px;clip-rule:evenodd;fill:#27003d;fill-opacity:1;fill-rule:evenodd;stroke-width:1.16572;image-rendering:optimizeQuality;shape-rendering:geometricPrecision;text-rendering:geometricPrecision"
         d="m 8273.393,5268.903 h 74.4625 v 58.4903 h -97.8587"
         id="path81"
         sodipodi:nodetypes="cccc" />
      <path
         style="font-weight:900;font-size:270.215px;line-height:1.25;font-family:Tektur;-inkscape-font-specification:'Tektur Heavy';font-variant-ligatures:none;text-align:justify;letter-spacing:0px;word-spacing:0px;clip-rule:evenodd;fill:#360045;fill-opacity:1;fill-rule:evenodd;stroke-width:1.16572;image-rendering:optimizeQuality;shape-rendering:geometricPrecision;text-rendering:geometricPrecision"
         d="m 8390.9113,5327.3933 h -24.0466 v -204.716 h 64.3392 v 73.1129 h 12.2398"
         id="path82"
         sodipodi:nodetypes="cccccc" />
      <path
         style="font-weight:900;font-size:270.215px;line-height:1.25;font-family:Tektur;-inkscape-font-specification:'Tektur Heavy';font-variant-ligatures:none;text-align:justify;letter-spacing:0px;word-spacing:0px;clip-rule:evenodd;fill:#1f003d;fill-opacity:1;fill-rule:evenodd;stroke-width:1.16572;image-rendering:optimizeQuality;shape-rendering:geometricPrecision;text-rendering:geometricPrecision"
         d="m 8728.0416,5262.5941 v 23.856 l -40.9432,40.9432 h -122.8295 v -55.5657 h 99.4335 v -15.2997"
         id="path83"
         sodipodi:nodetypes="ccccccc" />
      <g
         id="g93"
         transform="matrix(1.1906732,0,0,1.1906732,-1578.0117,-999.22244)"
         style="stroke-width:2.25718">
        <rect
           style="fill:#27003d;fill-opacity:1;stroke:none;stroke-width:7.83239;stroke-linecap:round;stroke-miterlimit:10"
           id="rect83"
           width="43.122715"
           height="45.915249"
           x="8046.7563"
           y="5141.7153" />
        <rect
           style="fill:#27003d;fill-opacity:1;stroke:none;stroke-width:7.83239;stroke-linecap:round;stroke-miterlimit:10"
           id="rect84"
           width="56.411633"
           height="76.111115"
           x="8139.9585"
           y="5190.0996" />
        <rect
           style="fill:#1f003d;fill-opacity:1;stroke:none;stroke-width:7.83239;stroke-linecap:round;stroke-miterlimit:10"
           id="rect85"
           width="104.05476"
           height="45.915249"
           x="8092.3159"
           y="5141.7153" />
        <rect
           style="fill:#360045;fill-opacity:1;stroke:none;stroke-width:7.83239;stroke-linecap:round;stroke-miterlimit:10"
           id="rect86"
           width="60.584152"
           height="44.147835"
           x="-8196.3701"
           y="5269.2559"
           transform="scale(-1,1)" />
        <rect
           style="fill:#1f003d;fill-opacity:1;stroke:none;stroke-width:7.83239;stroke-linecap:round;stroke-miterlimit:10"
           id="rect87"
           width="86.245293"
           height="44.147835"
           x="-8133.0015"
           y="5269.2559"
           transform="scale(-1,1)" />
        <path
           id="path87"
           style="font-weight:900;font-size:270.215px;line-height:1.25;font-family:Tektur;-inkscape-font-specification:'Tektur Heavy';font-variant-ligatures:none;text-align:justify;letter-spacing:0px;word-spacing:0px;fill:#360045;fill-opacity:1;stroke-width:0.979049"
           d="m 7838.278,5246.1048 v 25.6031 h -15.8403 v 41.6957 h 37.9157 l 34.338,-34.3372 v -32.9616 z"
           sodipodi:nodetypes="cccccccc" />
        <rect
           style="fill:#27003d;fill-opacity:1;stroke:none;stroke-width:7.83239;stroke-linecap:round;stroke-miterlimit:10"
           id="rect88"
           width="46.694931"
           height="127.07462"
           x="7747.5288"
           y="5141.7153" />
        <rect
           style="fill:#1f003d;fill-opacity:1;stroke:none;stroke-width:7.83239;stroke-linecap:round;stroke-miterlimit:10"
           id="rect89"
           width="72.396828"
           height="41.696133"
           x="-7819.9253"
           y="5271.708"
           transform="scale(-1,1)" />
        <path
           style="font-weight:900;font-size:270.215px;line-height:1.25;font-family:Tektur;-inkscape-font-specification:'Tektur Heavy';font-variant-ligatures:none;text-align:justify;letter-spacing:0px;word-spacing:0px;fill:#360045;fill-opacity:1;stroke-width:0.979049"
           d="m 7796.7511,5141.7157 v 41.6957 h 36.6867 56.3477 v -7.3585 l -35.0596,-34.3372 z"
           id="path89" />
        <path
           id="path90"
           style="font-weight:900;font-size:270.215px;line-height:1.25;font-family:Tektur;-inkscape-font-specification:'Tektur Heavy';font-variant-ligatures:none;text-align:justify;letter-spacing:0px;word-spacing:0px;fill:#1f003d;fill-opacity:1;stroke-width:0.979049"
           d="m 7834.5988,5186.0139 v 23.1504 h -37.6658 v 34.3381 h 41.345 56.4134 v -2.6982 l -21.3383,-17.1686 16.4324,-12.9997 v -24.622 z"
           sodipodi:nodetypes="ccccccccccc" />
        <rect
           style="fill:#360045;fill-opacity:1;stroke:none;stroke-width:7.83239;stroke-linecap:round;stroke-miterlimit:10"
           id="rect90"
           width="56.411896"
           height="76.653305"
           x="8046.7563"
           y="5190.0996" />
        <path
           style="font-weight:900;font-size:270.215px;line-height:1.25;font-family:Tektur;-inkscape-font-specification:'Tektur Heavy';font-variant-ligatures:none;text-align:justify;letter-spacing:0px;word-spacing:0px;fill:#1f003d;fill-opacity:1;stroke-width:0.979049"
           d="m 7909.4062,5266.4231 v -76.2952 h 53.9593 v 76.2952 z"
           id="path91"
           sodipodi:nodetypes="ccccc" />
        <path
           style="font-weight:900;font-size:270.215px;line-height:1.25;font-family:Tektur;-inkscape-font-specification:'Tektur Heavy';font-variant-ligatures:none;text-align:justify;letter-spacing:0px;word-spacing:0px;fill:#360045;fill-opacity:1;stroke-width:0.979049"
           d="m 7909.4061,5313.404 v -44.1485 h 54.4432 18.771 v 44.1485 z"
           id="path92"
           sodipodi:nodetypes="cccccc" />
        <path
           style="font-weight:900;font-size:270.215px;line-height:1.25;font-family:Tektur;-inkscape-font-specification:'Tektur Heavy';font-variant-ligatures:none;text-align:justify;letter-spacing:0px;word-spacing:0px;fill:#27003d;fill-opacity:1;stroke-width:0.979049"
           d="m 7985.4397,5313.404 v -44.1485 -24.5269 h 46.6012 v 68.6754 z"
           id="path93"
           sodipodi:nodetypes="cccccc" />
        <rect
           style="fill:#27003d;fill-opacity:1;stroke:none;stroke-width:7.83239;stroke-linecap:round;stroke-miterlimit:10"
           id="rect93"
           width="53.95927"
           height="45.915249"
           x="7909.4058"
           y="5141.7153" />
      </g>
      <path
         style="font-weight:900;font-size:270.215px;line-height:1.25;font-family:Tektur;-inkscape-font-specification:'Tektur Heavy';font-variant-ligatures:none;text-align:justify;letter-spacing:0px;word-spacing:0px;clip-rule:evenodd;fill:#27003d;fill-opacity:1;fill-rule:evenodd;stroke-width:1.16572;image-rendering:optimizeQuality;shape-rendering:geometricPrecision;text-rendering:geometricPrecision"
         d="m 8561.3444,5184.5521 v -20.9315 l 40.9431,-40.9433 h 122.8297 v 55.5657 h -99.4336 v 12.3753"
         id="path94"
         sodipodi:nodetypes="ccccccc" />
      <path
         style="font-weight:900;font-size:270.215px;line-height:1.25;font-family:Tektur;-inkscape-font-specification:'Tektur Heavy';font-variant-ligatures:none;text-align:justify;letter-spacing:0px;word-spacing:0px;clip-rule:evenodd;fill:#360045;fill-opacity:1;fill-rule:evenodd;stroke-width:1.16572;image-rendering:optimizeQuality;shape-rendering:geometricPrecision;text-rendering:geometricPrecision"
         d="m 8201.6298,5236.4135 v -69.8685 l 43.8676,-43.8677 h 23.3961 v 58.4902 55.246"
         id="path95"
         sodipodi:nodetypes="cccccc" />
      <path
         style="font-weight:900;font-size:270.215px;line-height:1.25;font-family:Tektur;-inkscape-font-specification:'Tektur Heavy';font-variant-ligatures:none;text-align:justify;letter-spacing:0px;word-spacing:0px;clip-rule:evenodd;fill:#0000ff;fill-opacity:1;fill-rule:evenodd;stroke-width:1.16572;image-rendering:optimizeQuality;shape-rendering:geometricPrecision;text-rendering:geometricPrecision"
         d="m 8268.8935,5226.908 v 41.995 z"
         id="path96" />
      <path
         style="font-weight:900;font-size:270.215px;line-height:1.25;font-family:Tektur;-inkscape-font-specification:'Tektur Heavy';font-variant-ligatures:none;text-align:justify;letter-spacing:0px;word-spacing:0px;clip-rule:evenodd;fill:#1f003d;fill-opacity:1;fill-rule:evenodd;stroke-width:1.16572;image-rendering:optimizeQuality;shape-rendering:geometricPrecision;text-rendering:geometricPrecision"
         d="m 8268.8935,5268.903 -23.3961,58.4903 -43.8676,-43.8676 v -43.4894 h 67.2637"
         id="path97"
         sodipodi:nodetypes="ccccc" />
      <path
         style="font-weight:900;font-size:270.215px;line-height:1.25;font-family:Tektur;-inkscape-font-specification:'Tektur Heavy';font-variant-ligatures:none;text-align:justify;letter-spacing:0px;word-spacing:0px;clip-rule:evenodd;fill:#27003d;fill-opacity:1;fill-rule:evenodd;stroke-width:1.16572;image-rendering:optimizeQuality;shape-rendering:geometricPrecision;text-rendering:geometricPrecision"
         d="m 8272.8004,5122.6773 h 72.1305 v 58.4902 h -72.1305 z"
         id="path98"
         sodipodi:nodetypes="ccccc" />
      <path
         style="font-weight:900;font-size:270.215px;line-height:1.25;font-family:Tektur;-inkscape-font-specification:'Tektur Heavy';font-variant-ligatures:none;text-align:justify;letter-spacing:0px;word-spacing:0px;clip-rule:evenodd;fill:#1f003d;fill-opacity:1;fill-rule:evenodd;stroke-width:1.16572;image-rendering:optimizeQuality;shape-rendering:geometricPrecision;text-rendering:geometricPrecision"
         d="m 8447.5812,5195.7902 29.2452,-73.1129 h 69.8958 l -43.8675,96.509 48.2543,108.207 h -71.0655 l -30.9999,-76.0373 h -17.8397 v 76.0373 h -36.1551"
         id="path99" />
      <path
         style="clip-rule:evenodd;fill:#360045;fill-opacity:1;fill-rule:evenodd;stroke:none;stroke-width:1.16572px;stroke-linecap:butt;stroke-linejoin:miter;stroke-opacity:1;image-rendering:optimizeQuality;shape-rendering:geometricPrecision;text-rendering:geometricPrecision"
         d="m 8561.3444,5189.7239 64.3391,6.0659 102.358,9.6507 v 51.9815 l -166.6971,-15.7167 z"
         id="path100" />
    </g>
  </g>
</svg>
